<svg xmlns="http://www.w3.org/2000/svg" xmlns:xlink="http://www.w3.org/1999/xlink" width="500" zoomAndPan="magnify" viewBox="0 0 375 374.999991" height="500" preserveAspectRatio="xMidYMid meet" version="1.0"><defs><clipPath id="e126dc7f5b"><path d="M 37.5 64.019531 L 337.5 64.019531 L 337.5 310.769531 L 37.5 310.769531 Z M 37.5 64.019531 " clip-rule="nonzero"/></clipPath><clipPath id="b265286832"><path d="M 175.785156 137.058594 L 277 137.058594 L 277 238 L 175.785156 238 Z M 175.785156 137.058594 " clip-rule="nonzero"/></clipPath></defs><g clip-path="url(#e126dc7f5b)"><path fill="#fdfffc" d="M 224.871094 110.863281 C 267.234375 110.863281 301.332031 145.304688 301.332031 187.667969 C 301.332031 230.03125 267.234375 264.128906 224.871094 264.128906 C 184.917969 264.128906 152.195312 233.476562 148.410156 194.554688 L 71.945312 194.554688 C 69.191406 201.101562 62.992188 205.578125 55.414062 205.578125 C 45.425781 205.578125 37.503906 197.65625 37.503906 187.667969 C 37.503906 177.679688 45.425781 169.757812 55.414062 169.757812 C 62.992188 169.757812 69.191406 174.234375 71.945312 180.433594 L 148.410156 180.433594 C 152.195312 141.515625 184.917969 110.863281 224.871094 110.863281 Z M 125.332031 134.972656 L 105.011719 134.972656 C 102.257812 128.773438 96.054688 123.949219 88.480469 123.949219 C 78.492188 123.949219 70.570312 132.214844 70.570312 142.203125 C 70.570312 151.847656 78.492188 160.113281 88.480469 160.113281 C 96.054688 160.113281 102.257812 155.636719 105.011719 149.09375 L 133.941406 149.09375 C 136.007812 144.269531 138.421875 139.449219 141.519531 134.972656 C 158.398438 108.105469 188.359375 89.851562 222.804688 88.820312 L 224.871094 88.820312 C 279.289062 88.820312 323.375 133.25 323.375 187.667969 C 323.375 242.085938 279.289062 286.171875 224.871094 286.171875 L 222.804688 286.171875 C 188.359375 285.484375 158.398438 267.230469 141.519531 240.019531 C 138.421875 235.542969 136.007812 231.066406 133.941406 226.242188 L 105.011719 226.242188 C 102.257812 219.699219 96.054688 215.222656 88.480469 215.222656 C 78.492188 215.222656 70.570312 223.144531 70.570312 233.132812 C 70.570312 243.121094 78.492188 251.042969 88.480469 251.042969 C 96.054688 251.042969 102.257812 246.5625 105.011719 240.019531 L 125.332031 240.019531 C 135.664062 259.652344 151.164062 275.496094 170.453125 286.171875 L 140.832031 286.171875 C 138.074219 279.628906 131.53125 275.152344 123.953125 275.152344 C 114.3125 275.152344 106.042969 283.074219 106.042969 293.0625 C 106.042969 303.046875 114.3125 310.96875 123.953125 310.96875 C 131.53125 310.96875 138.074219 306.492188 140.832031 300.292969 L 224.871094 300.292969 C 286.863281 300.292969 337.496094 249.664062 337.496094 187.667969 C 337.496094 125.328125 286.863281 75.042969 224.871094 75.042969 L 140.832031 75.042969 C 138.074219 68.5 131.53125 64.019531 123.953125 64.019531 C 114.3125 64.019531 106.042969 71.941406 106.042969 81.929688 C 106.042969 91.917969 114.3125 99.839844 123.953125 99.839844 C 131.53125 99.839844 138.074219 95.363281 140.832031 88.820312 L 170.453125 88.820312 C 151.164062 99.496094 135.664062 115.683594 125.332031 134.972656 Z M 224.871094 124.984375 C 259.3125 124.984375 287.554688 152.882812 287.554688 187.667969 C 287.554688 222.109375 259.3125 250.351562 224.871094 250.351562 C 190.082031 250.351562 162.183594 222.109375 162.183594 187.667969 C 162.183594 152.882812 190.082031 124.984375 224.871094 124.984375 Z M 224.871094 124.984375 " fill-opacity="1" fill-rule="evenodd"/></g><g clip-path="url(#b265286832)"><path fill="#41ead4" d="M 276.660156 187.496094 C 276.660156 189.148438 276.582031 190.792969 276.417969 192.4375 C 276.257812 194.082031 276.015625 195.714844 275.691406 197.335938 C 275.371094 198.957031 274.96875 200.554688 274.488281 202.136719 C 274.011719 203.71875 273.453125 205.269531 272.824219 206.796875 C 272.191406 208.324219 271.484375 209.8125 270.707031 211.269531 C 269.925781 212.726562 269.078125 214.144531 268.160156 215.515625 C 267.242188 216.890625 266.261719 218.214844 265.214844 219.492188 C 264.164062 220.769531 263.058594 221.992188 261.890625 223.160156 C 260.722656 224.328125 259.5 225.4375 258.222656 226.484375 C 256.945312 227.53125 255.621094 228.515625 254.246094 229.433594 C 252.871094 230.351562 251.457031 231.199219 250 231.976562 C 248.542969 232.753906 247.050781 233.460938 245.527344 234.09375 C 244 234.726562 242.445312 235.28125 240.867188 235.761719 C 239.285156 236.242188 237.683594 236.640625 236.0625 236.964844 C 234.445312 237.285156 232.8125 237.527344 231.167969 237.691406 C 229.523438 237.851562 227.875 237.933594 226.222656 237.933594 C 224.574219 237.933594 222.925781 237.851562 221.28125 237.691406 C 219.636719 237.527344 218.003906 237.285156 216.382812 236.964844 C 214.765625 236.640625 213.164062 236.242188 211.582031 235.761719 C 210.003906 235.28125 208.449219 234.726562 206.921875 234.09375 C 205.398438 233.460938 203.90625 232.753906 202.449219 231.976562 C 200.992188 231.199219 199.578125 230.351562 198.203125 229.433594 C 196.828125 228.515625 195.503906 227.53125 194.226562 226.484375 C 192.949219 225.4375 191.726562 224.328125 190.558594 223.160156 C 189.390625 221.992188 188.285156 220.769531 187.234375 219.492188 C 186.1875 218.214844 185.203125 216.890625 184.285156 215.515625 C 183.371094 214.144531 182.519531 212.726562 181.742188 211.269531 C 180.964844 209.8125 180.257812 208.324219 179.625 206.796875 C 178.992188 205.269531 178.4375 203.71875 177.957031 202.136719 C 177.480469 200.554688 177.078125 198.957031 176.757812 197.335938 C 176.433594 195.714844 176.191406 194.082031 176.03125 192.4375 C 175.867188 190.792969 175.785156 189.148438 175.785156 187.496094 C 175.785156 185.84375 175.867188 184.195312 176.03125 182.550781 C 176.191406 180.90625 176.433594 179.277344 176.757812 177.65625 C 177.078125 176.035156 177.480469 174.433594 177.957031 172.855469 C 178.4375 171.273438 178.992188 169.71875 179.625 168.195312 C 180.257812 166.667969 180.964844 165.175781 181.742188 163.71875 C 182.519531 162.261719 183.371094 160.847656 184.285156 159.472656 C 185.203125 158.101562 186.1875 156.773438 187.234375 155.496094 C 188.285156 154.222656 189.390625 153 190.558594 151.832031 C 191.726562 150.664062 192.949219 149.554688 194.226562 148.507812 C 195.503906 147.457031 196.828125 146.476562 198.203125 145.558594 C 199.578125 144.640625 200.992188 143.792969 202.449219 143.011719 C 203.90625 142.234375 205.398438 141.527344 206.921875 140.898438 C 208.449219 140.265625 210.003906 139.707031 211.582031 139.230469 C 213.164062 138.75 214.765625 138.347656 216.382812 138.027344 C 218.003906 137.703125 219.636719 137.460938 221.28125 137.300781 C 222.925781 137.136719 224.574219 137.058594 226.222656 137.058594 C 227.875 137.058594 229.523438 137.136719 231.167969 137.300781 C 232.8125 137.460938 234.445312 137.703125 236.0625 138.027344 C 237.683594 138.347656 239.285156 138.75 240.867188 139.230469 C 242.445312 139.707031 244 140.265625 245.527344 140.898438 C 247.050781 141.527344 248.542969 142.234375 250 143.011719 C 251.457031 143.792969 252.871094 144.640625 254.246094 145.558594 C 255.621094 146.476562 256.945312 147.457031 258.222656 148.507812 C 259.5 149.554688 260.722656 150.664062 261.890625 151.832031 C 263.058594 153 264.164062 154.222656 265.214844 155.496094 C 266.261719 156.773438 267.242188 158.101562 268.160156 159.472656 C 269.078125 160.847656 269.925781 162.261719 270.707031 163.71875 C 271.484375 165.175781 272.191406 166.667969 272.824219 168.195312 C 273.453125 169.71875 274.011719 171.273438 274.488281 172.855469 C 274.96875 174.433594 275.371094 176.035156 275.691406 177.65625 C 276.015625 179.277344 276.257812 180.90625 276.417969 182.550781 C 276.582031 184.195312 276.660156 185.84375 276.660156 187.496094 Z M 276.660156 187.496094 " fill-opacity="1" fill-rule="nonzero"/></g></svg>